<?xml version="1.0" encoding="UTF-8" standalone="no"?>
<!-- Created with Inkscape (http://www.inkscape.org/) -->

<svg
   xmlns:dc="http://purl.org/dc/elements/1.1/"
   xmlns:cc="http://creativecommons.org/ns#"
   xmlns:rdf="http://www.w3.org/1999/02/22-rdf-syntax-ns#"
   xmlns:svg="http://www.w3.org/2000/svg"
   xmlns="http://www.w3.org/2000/svg"
   xmlns:sodipodi="http://sodipodi.sourceforge.net/DTD/sodipodi-0.dtd"
   xmlns:inkscape="http://www.inkscape.org/namespaces/inkscape"
   width="58.259781mm"
   height="18.998775mm"
   viewBox="0 0 58.259781 18.998775"
   version="1.1"
   id="svg4663"
   inkscape:version="0.92.1 r"
   sodipodi:docname="logo.svg">
  <defs
     id="defs4657" />
  <sodipodi:namedview
     id="base"
     pagecolor="#ffffff"
     bordercolor="#666666"
     borderopacity="1.0"
     inkscape:pageopacity="0.0"
     inkscape:pageshadow="2"
     inkscape:zoom="0.35"
     inkscape:cx="18.66865"
     inkscape:cy="-224.0968"
     inkscape:document-units="mm"
     inkscape:current-layer="layer1"
     showgrid="false"
     fit-margin-top="0"
     fit-margin-left="0"
     fit-margin-right="0"
     fit-margin-bottom="0"
     inkscape:window-width="1366"
     inkscape:window-height="724"
     inkscape:window-x="0"
     inkscape:window-y="0"
     inkscape:window-maximized="1" />
  <metadata
     id="metadata4660">
    <rdf:RDF>
      <cc:Work
         rdf:about="">
        <dc:format>image/svg+xml</dc:format>
        <dc:type
           rdf:resource="http://purl.org/dc/dcmitype/StillImage" />
        <dc:title></dc:title>
      </cc:Work>
    </rdf:RDF>
  </metadata>
  <g
     inkscape:label="Layer 1"
     inkscape:groupmode="layer"
     id="layer1"
     transform="translate(131.93941,-70.542279)">
    <g
       transform="matrix(0.26458333,0,0,0.26458333,-66.296172,61.291852)"
       id="g18">
      <path
         style="fill:#496bb3"
         inkscape:connector-curvature="0"
         d="m -152.207,60.408 c 0,8.053 -4.329,12.14 -9.96,12.14 -5.903,0 -9.688,-4.783 -9.688,-11.776 0,-7.296 4.057,-12.079 9.99,-12.079 6.146,-10e-4 9.658,5.055 9.658,11.715 z m -15.954,0.273 c 0,4.692 2.119,8.991 6.115,8.991 4.057,0 6.146,-4.208 6.146,-9.143 0,-4.42 -1.938,-8.961 -6.085,-8.961 -4.269,0 -6.176,4.572 -6.176,9.113 z"
         id="path2" />
      <path
         style="fill:#496bb3"
         inkscape:connector-curvature="0"
         d="m -134.86,67.765 c 0,1.514 0.061,3.3 0.121,4.45 h -3.088 l -0.182,-2.604 h -0.091 c -0.878,1.695 -2.694,2.937 -5.056,2.937 -3.784,0 -6.66,-3.36 -6.66,-8.507 0,-5.661 3.239,-8.87 6.963,-8.87 2.149,0 3.693,0.969 4.42,2.24 h 0.061 v -9.476 h 3.512 z m -3.512,-5.48 c 0,-2.725 -1.726,-4.329 -3.693,-4.329 -2.694,0 -4.178,2.664 -4.178,5.964 0,3.27 1.453,5.782 4.117,5.782 2.271,0 3.754,-1.998 3.754,-4.329 z"
         id="path4" />
      <path
         style="fill:#496bb3"
         inkscape:connector-curvature="0"
         d="m -116.001,63.738 c 0,6.236 -4.057,8.81 -7.811,8.81 -4.329,0 -7.629,-3.179 -7.629,-8.567 0,-5.631 3.451,-8.81 7.871,-8.81 4.572,0 7.569,3.451 7.569,8.567 z m -7.689,-5.933 c -2.997,0 -4.147,3.209 -4.147,6.085 0,3.27 1.544,6.024 4.117,6.024 2.543,0 4.117,-2.755 4.117,-6.085 -0.001,-2.755 -1.151,-6.024 -4.087,-6.024 z"
         id="path6" />
      <path
         style="fill:#496bb3"
         inkscape:connector-curvature="0"
         d="m -98.745,72.215 h -3.512 v -9.778 c 0,-2.361 -0.787,-4.359 -3.179,-4.359 -1.726,0 -3.572,1.423 -3.572,4.087 v 10.051 h -3.512 V 60.227 c 0,-1.847 -0.061,-3.27 -0.121,-4.692 h 3.058 l 0.182,2.482 h 0.091 c 0.787,-1.423 2.543,-2.846 5.056,-2.846 2.604,0 5.51,1.695 5.51,6.842 v 10.202 z"
         id="path8" />
      <path
         style="fill:#496bb3"
         inkscape:connector-curvature="0"
         d="m -93.629,52.507 3.481,-1.09 v 4.117 h 3.966 v 2.634 h -3.966 v 8.446 c 0,2.059 0.636,3.058 2.119,3.058 0.696,0 1.12,-0.091 1.544,-0.212 l 0.121,2.694 c -0.605,0.242 -1.544,0.394 -2.725,0.394 -1.393,0 -2.573,-0.454 -3.3,-1.271 -0.848,-0.908 -1.241,-2.301 -1.241,-4.48 v -8.628 h -2.361 v -2.634 h 2.361 v -3.028 z"
         id="path10" />
      <path
         style="fill:#496bb3"
         inkscape:connector-curvature="0"
         d="m -68.775,63.738 c 0,6.236 -4.057,8.81 -7.811,8.81 -4.329,0 -7.629,-3.179 -7.629,-8.567 0,-5.631 3.451,-8.81 7.871,-8.81 4.572,0 7.569,3.451 7.569,8.567 z m -7.69,-5.933 c -2.997,0 -4.147,3.209 -4.147,6.085 0,3.27 1.544,6.024 4.117,6.024 2.543,0 4.117,-2.755 4.117,-6.085 0,-2.755 -1.15,-6.024 -4.087,-6.024 z"
         id="path12" />
      <path
         style="fill:#0299d4"
         inkscape:connector-curvature="0"
         d="m -47.493,52.658 c -0.757,-0.424 -2.21,-1.029 -4.117,-1.029 -2.755,0 -3.905,1.604 -3.905,3.088 0,1.968 1.302,2.937 4.238,4.208 3.724,1.635 5.51,3.663 5.51,6.842 0,3.875 -2.876,6.781 -8.083,6.781 -2.18,0 -4.48,-0.636 -5.601,-1.393 l 0.787,-2.937 c 1.241,0.757 3.118,1.362 5.025,1.362 2.755,0 4.299,-1.423 4.299,-3.512 0,-1.968 -1.181,-3.179 -3.936,-4.329 -3.451,-1.393 -5.782,-3.481 -5.782,-6.63 0,-3.663 2.937,-6.418 7.538,-6.418 2.21,0 3.875,0.545 4.874,1.06 z"
         id="path14" />
      <path
         style="fill:#496bb3"
         inkscape:connector-curvature="0"
         d="m -42.014,49.328 c 1.393,-0.242 3.239,-0.454 5.631,-0.454 2.846,0 4.995,0.605 6.388,1.847 1.302,1.12 2.089,2.876 2.089,4.995 0,5.631 -4.48,7.568 -8.658,7.568 -0.727,0 -1.393,-0.03 -1.968,-0.151 v 9.082 h -3.481 V 49.328 Z m 3.482,10.989 c 0.515,0.151 1.15,0.182 1.968,0.182 3.209,0 5.146,-1.665 5.146,-4.632 0,-2.815 -1.938,-4.238 -4.753,-4.238 -1.09,0 -1.907,0.121 -2.361,0.212 z"
         id="path16" />
    </g>
    <g
       transform="matrix(0.26458333,0,0,0.26458333,-66.296172,61.291852)"
       id="g60">
      <path
         style="fill:#848484"
         inkscape:connector-curvature="0"
         d="m -165.847,96.209 h -4.878 v -13.48 h 4.793 v 1.534 h -2.994 v 4.274 h 2.772 v 1.535 h -2.772 v 4.645 h 3.079 z"
         id="path20" />
      <path
         style="fill:#848484"
         inkscape:connector-curvature="0"
         d="m -159.509,88.527 c -0.529,-0.219 -0.983,-0.328 -1.365,-0.328 -0.366,0 -0.661,0.092 -0.883,0.275 -0.223,0.185 -0.334,0.436 -0.334,0.754 0,0.255 0.094,0.506 0.28,0.753 0.186,0.248 0.57,0.624 1.153,1.128 0.582,0.504 0.995,0.956 1.238,1.354 0.244,0.399 0.365,0.839 0.365,1.319 0,0.728 -0.247,1.331 -0.74,1.812 -0.494,0.48 -1.122,0.72 -1.884,0.72 -0.494,0 -1.072,-0.13 -1.735,-0.392 v -1.428 c 0.645,0.261 1.189,0.392 1.636,0.392 0.333,0 0.594,-0.091 0.781,-0.271 0.188,-0.181 0.281,-0.423 0.281,-0.727 0,-0.282 -0.125,-0.583 -0.375,-0.901 -0.251,-0.318 -0.683,-0.724 -1.297,-1.218 -0.882,-0.713 -1.322,-1.532 -1.322,-2.458 0,-0.727 0.241,-1.333 0.725,-1.816 0.484,-0.483 1.084,-0.726 1.804,-0.726 0.444,0 1.002,0.116 1.672,0.349 z"
         id="path22" />
      <path
         style="fill:#848484"
         inkscape:connector-curvature="0"
         d="m -153.764,88.326 h -1.11 v 7.883 h -1.735 v -7.883 h -1.111 v -1.365 h 1.111 v -2.519 h 1.735 v 2.519 h 1.11 z"
         id="path24" />
      <path
         style="fill:#848484"
         inkscape:connector-curvature="0"
         d="m -146.431,91.892 h -3.894 c 0,1.002 0.069,1.759 0.206,2.27 0.138,0.512 0.464,0.768 0.979,0.768 0.395,0 0.663,-0.148 0.804,-0.444 0.142,-0.297 0.215,-0.762 0.223,-1.396 h 1.576 c -0.05,2.165 -0.967,3.248 -2.751,3.248 -1.919,0 -2.878,-1.517 -2.878,-4.55 0,-3.309 0.994,-4.963 2.983,-4.963 0.755,0 1.402,0.286 1.942,0.857 0.539,0.571 0.809,1.753 0.809,3.545 v 0.665 z m -1.745,-1.344 c 0,-0.917 -0.074,-1.574 -0.223,-1.974 -0.148,-0.398 -0.416,-0.598 -0.804,-0.598 -0.459,0 -0.761,0.21 -0.905,0.63 -0.144,0.42 -0.217,1.067 -0.217,1.941 h 2.149 z"
         id="path26" />
      <path
         style="fill:#848484"
         inkscape:connector-curvature="0"
         d="m -140.886,88.326 h -1.11 v 7.883 h -1.735 v -7.883 h -1.111 v -1.365 h 1.111 v -2.519 h 1.735 v 2.519 h 1.11 z"
         id="path28" />
      <path
         style="fill:#848484"
         inkscape:connector-curvature="0"
         d="m -139.245,84.136 c 0,-0.254 0.094,-0.477 0.28,-0.667 0.188,-0.19 0.411,-0.285 0.672,-0.285 0.261,0 0.485,0.095 0.672,0.285 0.188,0.19 0.28,0.413 0.28,0.667 0,0.261 -0.093,0.485 -0.28,0.672 -0.187,0.187 -0.411,0.28 -0.672,0.28 -0.268,0 -0.493,-0.094 -0.677,-0.28 -0.184,-0.186 -0.275,-0.412 -0.275,-0.672 z m 0.085,2.825 h 1.714 v 9.248 h -1.714 z"
         id="path30" />
      <path
         style="fill:#848484"
         inkscape:connector-curvature="0"
         d="m -131.056,95.923 c -0.571,0.275 -1.094,0.413 -1.566,0.413 -0.945,0 -1.637,-0.388 -2.073,-1.164 -0.438,-0.775 -0.656,-1.996 -0.656,-3.661 0,-1.771 0.278,-2.998 0.836,-3.683 0.557,-0.684 1.206,-1.026 1.947,-1.026 0.366,0 0.863,0.11 1.491,0.328 v 1.471 c -0.409,-0.183 -0.733,-0.274 -0.974,-0.274 -0.501,0 -0.863,0.27 -1.09,0.81 -0.226,0.539 -0.338,1.388 -0.338,2.544 0,2.096 0.455,3.144 1.364,3.144 0.262,0 0.614,-0.109 1.059,-0.328 z"
         id="path32" />
      <path
         style="fill:#848484"
         inkscape:connector-curvature="0"
         d="m -123.648,96.209 h -1.735 v -1.122 h -0.053 c -0.443,0.833 -1.017,1.249 -1.72,1.249 -0.599,0 -1.126,-0.28 -1.584,-0.841 -0.457,-0.562 -0.686,-1.818 -0.686,-3.772 0,-1.735 0.172,-2.985 0.518,-3.751 0.345,-0.766 0.936,-1.148 1.772,-1.148 0.394,0 0.713,0.092 0.955,0.275 0.243,0.184 0.491,0.476 0.744,0.878 h 0.053 v -1.016 h 1.735 v 9.248 z m -2.836,-1.386 c 0.44,0 0.733,-0.265 0.881,-0.794 0.146,-0.529 0.22,-1.429 0.22,-2.698 0,-1.114 -0.066,-1.899 -0.199,-2.354 -0.133,-0.455 -0.412,-0.683 -0.838,-0.683 -0.427,0 -0.722,0.212 -0.886,0.635 -0.164,0.424 -0.246,1.189 -0.246,2.297 0,1.305 0.064,2.23 0.193,2.777 0.13,0.547 0.421,0.82 0.875,0.82 z"
         id="path34" />
      <path
         style="fill:#848484"
         inkscape:connector-curvature="0"
         d="m -111.194,86.961 -4.317,13.343 h -1.513 l 1.514,-4.918 -2.509,-8.425 h 1.733 l 1.52,6.364 h 0.045 l 1.881,-6.364 z"
         id="path36" />
      <path
         style="fill:#848484"
         inkscape:connector-curvature="0"
         d="m -101.152,88.527 c -0.529,-0.219 -0.983,-0.328 -1.365,-0.328 -0.366,0 -0.661,0.092 -0.883,0.275 -0.223,0.185 -0.334,0.436 -0.334,0.754 0,0.255 0.094,0.506 0.28,0.753 0.186,0.248 0.57,0.624 1.153,1.128 0.582,0.504 0.995,0.956 1.238,1.354 0.244,0.399 0.365,0.839 0.365,1.319 0,0.728 -0.247,1.331 -0.74,1.812 -0.494,0.48 -1.122,0.72 -1.884,0.72 -0.494,0 -1.072,-0.13 -1.735,-0.392 v -1.428 c 0.645,0.261 1.189,0.392 1.636,0.392 0.333,0 0.594,-0.091 0.781,-0.271 0.188,-0.181 0.281,-0.423 0.281,-0.727 0,-0.282 -0.125,-0.583 -0.375,-0.901 -0.251,-0.318 -0.683,-0.724 -1.297,-1.218 -0.882,-0.713 -1.322,-1.532 -1.322,-2.458 0,-0.727 0.241,-1.333 0.725,-1.816 0.484,-0.483 1.084,-0.726 1.804,-0.726 0.444,0 1.002,0.116 1.672,0.349 z"
         id="path38" />
      <path
         style="fill:#848484"
         inkscape:connector-curvature="0"
         d="m -93.079,96.209 h -1.735 v -1.122 h -0.053 c -0.443,0.833 -1.017,1.249 -1.72,1.249 -0.599,0 -1.126,-0.28 -1.584,-0.841 -0.457,-0.562 -0.686,-1.818 -0.686,-3.772 0,-1.735 0.172,-2.985 0.518,-3.751 0.345,-0.766 0.936,-1.148 1.772,-1.148 0.394,0 0.713,0.092 0.955,0.275 0.243,0.184 0.491,0.476 0.744,0.878 h 0.053 v -1.016 h 1.735 v 9.248 z m -2.836,-1.386 c 0.44,0 0.733,-0.265 0.881,-0.794 0.146,-0.529 0.22,-1.429 0.22,-2.698 0,-1.114 -0.066,-1.899 -0.199,-2.354 -0.133,-0.455 -0.412,-0.683 -0.838,-0.683 -0.427,0 -0.722,0.212 -0.886,0.635 -0.164,0.424 -0.246,1.189 -0.246,2.297 0,1.305 0.064,2.23 0.193,2.777 0.13,0.547 0.421,0.82 0.875,0.82 z"
         id="path40" />
      <path
         style="fill:#848484"
         inkscape:connector-curvature="0"
         d="m -88.994,96.209 h -1.735 V 82.252 h 1.735 z"
         id="path42" />
      <path
         style="fill:#848484"
         inkscape:connector-curvature="0"
         d="m -81.133,93.288 c 0,1.08 -0.216,1.857 -0.646,2.334 -0.431,0.476 -1.14,0.714 -2.127,0.714 -0.987,0 -1.704,-0.234 -2.148,-0.704 -0.444,-0.469 -0.666,-1.222 -0.666,-2.259 v -6.444 h 1.714 v 6.466 c 0,1.022 0.367,1.534 1.101,1.534 0.388,0 0.661,-0.131 0.82,-0.392 0.158,-0.261 0.237,-0.694 0.237,-1.302 v -6.307 h 1.715 z"
         id="path44" />
      <path
         style="fill:#848484"
         inkscape:connector-curvature="0"
         d="m -74.858,82.252 h 1.725 v 13.957 h -1.703 v -1.238 h -0.042 c -0.417,0.91 -1.009,1.365 -1.778,1.365 -0.451,0 -0.865,-0.151 -1.243,-0.455 -0.377,-0.303 -0.64,-0.727 -0.788,-1.27 -0.148,-0.543 -0.223,-1.45 -0.223,-2.72 0,-1.446 0.063,-2.481 0.19,-3.105 0.127,-0.624 0.371,-1.111 0.73,-1.46 0.359,-0.35 0.818,-0.524 1.376,-0.524 0.727,0 1.298,0.413 1.714,1.238 h 0.042 z m 0.021,9.185 c 0,-1.143 -0.072,-1.952 -0.217,-2.428 -0.145,-0.477 -0.436,-0.715 -0.873,-0.715 -0.437,0 -0.737,0.251 -0.899,0.752 -0.162,0.5 -0.243,1.329 -0.243,2.486 0,1.199 0.075,2.055 0.228,2.565 0.151,0.512 0.442,0.768 0.873,0.768 0.423,0 0.718,-0.267 0.883,-0.799 0.165,-0.532 0.248,-1.409 0.248,-2.629 z"
         id="path46" />
      <path
         style="fill:#848484"
         inkscape:connector-curvature="0"
         d="m -62.997,82.252 h 1.725 v 13.957 h -1.703 v -1.238 h -0.042 c -0.417,0.91 -1.009,1.365 -1.778,1.365 -0.451,0 -0.865,-0.151 -1.243,-0.455 -0.377,-0.303 -0.64,-0.727 -0.788,-1.27 -0.148,-0.543 -0.223,-1.45 -0.223,-2.72 0,-1.446 0.063,-2.481 0.19,-3.105 0.127,-0.624 0.371,-1.111 0.73,-1.46 0.359,-0.35 0.818,-0.524 1.376,-0.524 0.727,0 1.298,0.413 1.714,1.238 h 0.042 z m 0.021,9.185 c 0,-1.143 -0.072,-1.952 -0.217,-2.428 -0.145,-0.477 -0.436,-0.715 -0.873,-0.715 -0.437,0 -0.737,0.251 -0.899,0.752 -0.162,0.5 -0.243,1.329 -0.243,2.486 0,1.199 0.075,2.055 0.228,2.565 0.151,0.512 0.442,0.768 0.873,0.768 0.423,0 0.718,-0.267 0.883,-0.799 0.165,-0.532 0.248,-1.409 0.248,-2.629 z"
         id="path48" />
      <path
         style="fill:#848484"
         inkscape:connector-curvature="0"
         d="m -53.357,91.892 h -3.894 c 0,1.002 0.069,1.759 0.206,2.27 0.138,0.512 0.464,0.768 0.979,0.768 0.395,0 0.663,-0.148 0.804,-0.444 0.142,-0.297 0.215,-0.762 0.223,-1.396 h 1.576 c -0.05,2.165 -0.967,3.248 -2.751,3.248 -1.919,0 -2.878,-1.517 -2.878,-4.55 0,-3.309 0.994,-4.963 2.983,-4.963 0.755,0 1.402,0.286 1.942,0.857 0.539,0.571 0.809,1.753 0.809,3.545 v 0.665 z m -1.746,-1.344 c 0,-0.917 -0.074,-1.574 -0.223,-1.974 -0.148,-0.398 -0.416,-0.598 -0.804,-0.598 -0.459,0 -0.761,0.21 -0.905,0.63 -0.144,0.42 -0.217,1.067 -0.217,1.941 h 2.149 z"
         id="path50" />
      <path
         style="fill:#848484"
         inkscape:connector-curvature="0"
         d="m -49.378,86.929 v 0.89 h 0.042 c 0.444,-0.678 1.044,-1.017 1.799,-1.017 1.34,0 2.011,0.73 2.011,2.19 v 7.217 h -1.715 V 89.49 c 0,-0.91 -0.359,-1.365 -1.079,-1.365 -0.331,0 -0.594,0.121 -0.788,0.365 -0.194,0.243 -0.291,0.576 -0.291,1 v 6.719 h -1.735 v -9.28 z"
         id="path52" />
      <path
         style="fill:#848484"
         inkscape:connector-curvature="0"
         d="m -39.897,88.326 h -1.11 v 7.883 h -1.735 v -7.883 h -1.111 v -1.365 h 1.111 v -2.519 h 1.735 v 2.519 h 1.11 z"
         id="path54" />
      <path
         style="fill:#848484"
         inkscape:connector-curvature="0"
         d="m -32.606,96.209 h -1.735 v -1.122 h -0.053 c -0.443,0.833 -1.017,1.249 -1.72,1.249 -0.599,0 -1.126,-0.28 -1.584,-0.841 -0.457,-0.562 -0.686,-1.818 -0.686,-3.772 0,-1.735 0.172,-2.985 0.518,-3.751 0.345,-0.766 0.936,-1.148 1.772,-1.148 0.394,0 0.713,0.092 0.955,0.275 0.243,0.184 0.491,0.476 0.744,0.878 h 0.053 v -1.016 h 1.735 v 9.248 z m -2.836,-1.386 c 0.44,0 0.733,-0.265 0.881,-0.794 0.146,-0.529 0.22,-1.429 0.22,-2.698 0,-1.114 -0.066,-1.899 -0.199,-2.354 -0.133,-0.455 -0.412,-0.683 -0.838,-0.683 -0.427,0 -0.722,0.212 -0.886,0.635 -0.164,0.424 -0.246,1.189 -0.246,2.297 0,1.305 0.064,2.23 0.193,2.777 0.129,0.547 0.421,0.82 0.875,0.82 z"
         id="path56" />
      <path
         style="fill:#848484"
         inkscape:connector-curvature="0"
         d="m -28.522,96.209 h -1.735 V 82.252 h 1.735 z"
         id="path58" />
    </g>
    <g
       transform="matrix(0.26458333,0,0,0.26458333,-66.296172,61.291852)"
       id="g66">
      <path
         style="fill:#0299d4"
         inkscape:connector-curvature="0"
         d="m -219.886,39.484 c -6.764,-5.619 -16.878,-6.318 -23.596,-0.299 -6,5.358 -5.945,14.27 -1.045,20.147 2.438,2.934 5.496,5.291 8.43,7.759 0.638,0.54 3.09,3.536 3.182,3.692 2.007,3.331 1.467,7.842 0.681,11.466 -1.009,4.624 -2.827,9.053 -3.387,13.77 -0.204,1.691 -0.348,3.403 -0.555,5.102 -0.049,0.386 0.168,1.87 0.427,2.157 1.108,1.248 3.227,1.556 3.971,-0.411 3.116,-8.181 10.98,-15.306 9.36,-24.736 -0.529,-3.067 -1.908,-5.695 -3.722,-8.053 -0.094,-0.151 -0.201,-0.292 -0.328,-0.41 -2.331,-2.902 -5.313,-5.389 -8.137,-7.755 -4.436,-3.707 -9.988,-7.969 -8.223,-14.434 2.402,-8.764 13.465,-9.405 19.601,-4.317 2.46,2.045 5.814,-1.633 3.341,-3.678 z"
         id="path62" />
      <path
         style="fill:#496bb3"
         inkscape:connector-curvature="0"
         d="m -194.868,35.472 c -7.853,-0.581 -16.018,4.803 -21.795,9.53 -2.457,2.001 0.181,6.219 2.66,4.193 2.907,-2.371 6.223,-4.788 9.797,-6.486 0.687,-0.326 4.998,-1.432 6.48,-1.26 3.509,0.41 6.888,2.593 7.794,6.172 1.138,4.482 -0.181,9.828 -2.7,14.104 -2.606,6.432 -6.356,12.229 -9.755,18.226 -0.615,-3.835 -1.288,-7.653 -1.79,-11.496 -0.006,-0.058 -0.032,-0.867 -0.457,-0.532 -0.641,1.127 -1.125,2.385 -1.56,3.583 -1.063,2.929 -1.772,5.889 -2.204,8.955 0.72,6.986 1.529,13.965 2.035,20.967 0.035,0.444 0.064,0.889 0.092,1.334 0.02,0.224 -0.039,2.57 0.697,3.245 0.923,0.839 2.447,1.146 3.631,0.08 1.022,-0.92 1.132,-2.663 1.291,-3.935 0.341,-2.674 0.537,-5.357 0.938,-8.028 0.736,-4.901 3.032,-9.135 5.521,-13.363 5.121,-8.684 11.966,-17.437 12.705,-27.85 0.597,-8.413 -4.69,-16.798 -13.38,-17.439 z"
         id="path64" />
    </g>
  </g>
</svg>
