<?xml version="1.0" encoding="UTF-8" standalone="no"?>
<!-- Generator: Adobe Illustrator 16.0.0, SVG Export Plug-In . SVG Version: 6.00 Build 0)  -->

<svg
   xmlns:dc="http://purl.org/dc/elements/1.1/"
   xmlns:cc="http://creativecommons.org/ns#"
   xmlns:rdf="http://www.w3.org/1999/02/22-rdf-syntax-ns#"
   xmlns:svg="http://www.w3.org/2000/svg"
   xmlns="http://www.w3.org/2000/svg"
   xmlns:sodipodi="http://sodipodi.sourceforge.net/DTD/sodipodi-0.dtd"
   xmlns:inkscape="http://www.inkscape.org/namespaces/inkscape"
   version="1.1"
   id="Layer_1"
   x="0px"
   y="0px"
   width="471.84326"
   height="471.86432"
   viewBox="0 0 471.84325 471.8643"
   enable-background="new 0 0 841.89 595.28"
   xml:space="preserve"
   sodipodi:docname="whatsapp.svg"
   inkscape:version="0.92.2 5c3e80d, 2017-08-06"><metadata
     id="metadata13"><rdf:RDF><cc:Work
         rdf:about=""><dc:format>image/svg+xml</dc:format><dc:type
           rdf:resource="http://purl.org/dc/dcmitype/StillImage" /><dc:title></dc:title></cc:Work></rdf:RDF></metadata><defs
     id="defs11" /><sodipodi:namedview
     pagecolor="#ffffff"
     bordercolor="#666666"
     borderopacity="1"
     objecttolerance="10"
     gridtolerance="10"
     guidetolerance="10"
     inkscape:pageopacity="0"
     inkscape:pageshadow="2"
     inkscape:window-width="1366"
     inkscape:window-height="724"
     id="namedview9"
     showgrid="false"
     fit-margin-top="0"
     fit-margin-left="0"
     fit-margin-right="0"
     fit-margin-bottom="0"
     inkscape:zoom="0.53585874"
     inkscape:cx="66.057506"
     inkscape:cy="143.19324"
     inkscape:window-x="0"
     inkscape:window-y="0"
     inkscape:window-maximized="1"
     inkscape:current-layer="Layer_1" /><path
     style="clip-rule:evenodd;fill:#020202;fill-rule:evenodd"
     d="M 220.87695 0 C 217.07595 2.163 212.74878 1.6529844 208.67578 2.2089844 C 178.34878 6.3539844 150.02362 16.127406 123.51562 31.441406 C 98.567625 45.852406 77.152906 64.313125 59.128906 86.703125 C 38.150906 112.76213 23.635328 142.06088 15.486328 174.54688 C 7.0943281 207.99988 6.5227656 241.6258 13.259766 275.3418 C 16.930766 293.7108 22.812719 311.4172 31.136719 328.2832 C 33.965719 334.0132 36.781672 339.73102 40.138672 345.16602 C 41.478672 347.33302 41.692266 349.35367 40.822266 351.88867 C 30.199266 382.82567 19.692687 413.79944 9.1796875 444.77344 C 6.8436875 451.65744 4.6505781 458.59098 2.2675781 465.45898 C 1.7705781 466.88898 1.7736406 468.71334 0.056640625 469.52734 C 0.25364063 470.48334 -0.7625 472.25006 1.5625 471.78906 C 6.6685 468.82106 12.491953 467.85417 18.001953 466.07617 C 46.140953 456.99117 74.352109 448.14022 102.53711 439.19922 C 110.06111 436.81122 117.60108 434.46445 125.08008 431.93945 C 127.27008 431.20045 129.06091 431.27105 131.12891 432.37305 C 166.86791 451.41705 205.08133 460.28891 245.48633 459.50391 C 276.56133 458.89991 306.34869 452.18727 334.80469 439.57227 C 360.86769 428.01927 384.03787 412.19147 404.17188 392.10547 C 427.25087 369.08147 444.82092 342.35427 456.54492 311.82227 C 464.05892 292.25527 468.68383 272.06109 470.79883 251.24609 C 470.91283 250.12409 470.34375 248.67812 471.84375 247.95312 L 471.84375 211.77734 C 469.75975 207.94534 470.27733 203.61511 469.73633 199.53711 C 465.72233 169.32511 455.9673 141.15927 440.6543 114.82227 C 422.5043 83.603266 398.25908 58.152406 368.20508 38.316406 C 338.57408 18.759406 306.08597 6.6463281 270.79297 2.1113281 C 266.46297 1.5553281 261.93464 1.896 257.80664 0 L 220.87695 0 z M 163.59961 124.90039 C 165.18781 124.90608 166.79752 125.03953 168.41602 125.26953 C 170.75202 125.26953 173.008 125.16392 175.25 125.29492 C 178.684 125.49392 181.44483 126.78952 183.29883 129.97852 C 187.28683 136.84152 189.76539 144.35598 192.90039 151.58398 C 196.38739 159.62598 199.38258 167.89473 203.14258 175.80273 C 205.91458 181.63573 204.34173 186.46456 201.30273 191.35156 C 197.83773 196.92556 193.19356 201.54777 188.97656 206.50977 C 185.62256 210.45377 185.04564 213.77513 187.68164 218.07812 C 202.61864 242.46113 221.78114 262.56623 247.24414 276.11523 C 253.31414 279.34523 259.65291 282.11163 266.00391 284.76562 C 271.27391 286.96862 273.85731 285.98805 277.57031 281.74805 C 283.43331 275.05005 289.01658 268.13602 294.39258 261.04102 C 298.07658 256.17902 301.20519 255.29742 306.86719 257.73242 C 322.51719 264.46342 337.79845 271.98606 353.06445 279.53906 C 356.57645 281.27806 357.97833 283.91573 357.86133 287.67773 C 357.58633 296.54373 356.29736 305.22945 351.94336 313.06445 C 348.59236 319.09445 343.07523 323.13281 337.49023 327.00781 C 327.73523 333.77681 316.70466 336.98658 305.09766 338.01758 C 296.75166 338.75758 288.66186 336.35692 280.75586 333.91992 C 266.61886 329.56392 252.64325 324.68694 239.15625 318.58594 C 226.19125 312.72194 214.37613 304.9197 203.32812 295.9707 C 186.29313 282.1737 171.49108 266.22831 158.58008 248.57031 C 149.49908 236.14831 140.20706 223.81544 134.28906 209.39844 C 124.99806 186.76244 124.09317 164.59275 137.82617 143.21875 C 141.23217 137.91775 145.41297 133.20595 150.29297 129.25195 C 154.27022 126.02845 158.835 124.88333 163.59961 124.90039 z "
     id="path824" /></svg>