<?xml version="1.0" encoding="utf-8"?>
<!-- Generator: Adobe Illustrator 16.0.0, SVG Export Plug-In . SVG Version: 6.00 Build 0)  -->
<!DOCTYPE svg PUBLIC "-//W3C//DTD SVG 1.1//EN" "http://www.w3.org/Graphics/SVG/1.1/DTD/svg11.dtd">
<svg version="1.1" id="Layer_1" xmlns="http://www.w3.org/2000/svg" xmlns:xlink="http://www.w3.org/1999/xlink" x="0px" y="0px"
	 width="187.75px" height="185.547px" viewBox="0 0 187.75 185.547" enable-background="new 0 0 187.75 185.547"
	 xml:space="preserve">
<g>
	<rect x="-0.21" fill="#36C6C6" width="187.75" height="185.547"/>
	<path fill="#DBF0FC" d="M117.807,59.604c-6.665-3.38-13.417-2.107-18.043-0.35c-3.327,1.263-8.95,0.887-12.948-0.436
		c-4.549-1.504-10.72-2.307-16.818,0.785c-5.78,2.931-10.545,13.313-6,26.666c5.333,15.666,4.25,20.417,4.25,26.417
		s-1.445,18.127,4.75,25.249c5.509,6.334,10.666,10,13.333,7c0-5.479-2.646-32.141,7.571-35.26
		c10.217,3.119,7.571,29.781,7.571,35.26c2.668,3,7.824-0.666,13.334-7c6.195-7.122,4.75-19.249,4.75-25.249
		s-1.084-10.751,4.25-26.417C128.352,72.917,123.586,62.535,117.807,59.604z"/>
	<g>
		<path fill="#FFFFFF" d="M107.397,121.437c-34.643-59.754-19.335-55.682-79.091-21.041C88.062,65.755,83.99,81.062,49.35,21.308
			c34.64,59.754,19.333,55.682,79.088,21.039C68.682,76.989,72.754,61.683,107.397,121.437z"/>
	</g>
	<g>
		<path fill="#FFFFFF" d="M93.991,51.308c-2.897-9.014-2.561-8.841-11.574-5.942c9.014-2.898,8.841-2.562,5.942-11.575
			c2.898,9.014,2.561,8.841,11.575,5.943C90.92,42.631,91.094,42.294,93.991,51.308z"/>
	</g>
	<g>
		<path fill="#FFFFFF" d="M42.303,116.944c-2.897-9.014-2.561-8.842-11.574-5.943c9.014-2.898,8.841-2.561,5.942-11.574
			c2.898,9.014,2.561,8.84,11.574,5.943C39.231,108.267,39.405,107.931,42.303,116.944z"/>
	</g>
	<g>
		<path fill="#FFFFFF" d="M133.774,143.812c-2.898-9.014-2.561-8.842-11.574-5.943c9.014-2.898,8.84-2.561,5.941-11.574
			c2.898,9.014,2.561,8.84,11.574,5.943C130.702,135.134,130.875,134.798,133.774,143.812z"/>
	</g>
	<g>
		<path fill="#FFFFFF" d="M46.809,74.171c3.355-3.355,3.355-5.688,0-9.043c3.355,3.355,5.688,3.355,9.043,0
			c-3.355,3.355-3.355,5.688,0,9.043C52.497,70.815,50.165,70.815,46.809,74.171z"/>
	</g>
	<g>
		<path fill="#FFFFFF" d="M132.383,88.309c3.799-1.203,4.701-2.941,3.496-6.741c1.205,3.8,2.943,4.701,6.742,3.498
			c-3.799,1.203-4.701,2.941-3.498,6.741C137.92,88.007,136.182,87.105,132.383,88.309z"/>
	</g>
	<g>
		<path fill="#FFFFFF" d="M112.456,71.396c3.494-3.495,3.494-5.924,0-9.419c3.494,3.495,5.924,3.495,9.418,0.001
			c-3.494,3.494-3.494,5.923,0,9.418C118.379,67.901,115.95,67.901,112.456,71.396z"/>
	</g>
</g>
</svg>
