<?xml version="1.0" encoding="utf-8"?>
<!-- Generator: Adobe Illustrator 16.0.0, SVG Export Plug-In . SVG Version: 6.00 Build 0)  -->
<!DOCTYPE svg PUBLIC "-//W3C//DTD SVG 1.1//EN" "http://www.w3.org/Graphics/SVG/1.1/DTD/svg11.dtd">
<svg version="1.1" id="Layer_1" xmlns="http://www.w3.org/2000/svg" xmlns:xlink="http://www.w3.org/1999/xlink" x="0px" y="0px"
	 width="187.75px" height="185.547px" viewBox="0 0 187.75 185.547" enable-background="new 0 0 187.75 185.547"
	 xml:space="preserve">
<g>
	<rect fill="#12374C" width="187.75" height="185.547"/>
	<path fill="#DBF0FC" d="M111.646,59.914h0.008c0,0-0.01-0.018-0.02-0.033c-0.146-0.481-0.42-0.917-0.803-1.26
		c-0.836-1.266-2.152-3.12-3.199-3.957c-1.667-1.333-5.256-2.957-7.209-3.292c-1.826-0.313-7.469-0.593-7.469-0.593
		s-5.537,0.279-7.363,0.593c-1.953,0.335-5.542,1.959-7.209,3.292c-1.047,0.837-2.363,2.691-3.199,3.957
		c-0.383,0.343-0.656,0.778-0.803,1.26c-0.01,0.016-0.02,0.033-0.02,0.033h0.008c-0.065,0.227-0.111,0.462-0.111,0.708
		c0,1.565,1.418,2.833,3.167,2.833s3.167-1.268,3.167-2.833c0-0.246-0.047-0.481-0.112-0.708h0.009c0,0,0.187,0,1.854,0
		c0,1.174,0.876,2.125,1.958,2.125c1.046,0,1.894-0.893,1.948-2.015c0.617,0.042,1.196,0.1,1.697,0.177
		c-0.006,0.071-0.021,0.141-0.021,0.213c0,1.219,0.989,2.208,2.209,2.208c1.219,0,2.208-0.989,2.208-2.208
		c0-0.099-0.017-0.192-0.028-0.287c0.418-0.117,0.695-0.213,0.695-0.213s0.277,0.096,0.695,0.213
		c-0.012,0.095-0.028,0.188-0.028,0.287c0,1.219,0.989,2.208,2.208,2.208c1.22,0,2.209-0.989,2.209-2.208
		c0-0.072-0.016-0.142-0.021-0.213c0.501-0.077,1.08-0.135,1.697-0.177c0.055,1.122,0.902,2.015,1.948,2.015
		c1.082,0,1.958-0.951,1.958-2.125c1.667,0,1.854,0,1.854,0h0.009c-0.065,0.227-0.112,0.462-0.112,0.708
		c0,1.565,1.418,2.833,3.167,2.833s3.167-1.268,3.167-2.833C111.757,60.376,111.711,60.141,111.646,59.914z"/>
	<path fill="#36C6C6" d="M108.235,41.005c-3.583-0.883-6.875,0.659-8.541,1.325c-1.572,0.629-6.214,1.294-6.739,1.368
		c-0.525-0.074-5.167-0.739-6.738-1.368c-1.668-0.666-4.959-2.208-8.542-1.325c-5.274,1.3-18.667,25.534-24.001,38.866
		c0.334,12,2.167,31.918,5.834,40.501c3.878,9.076,11.814,20.46,33.395,20.498v0.002c0.018,0,0.035-0.001,0.053-0.001
		s0.035,0.001,0.053,0.001v-0.002c21.58-0.038,29.518-11.422,33.395-20.498c3.667-8.583,5.501-28.501,5.834-40.501
		C126.903,66.539,113.51,42.305,108.235,41.005z M124.067,101.962c-2.107,5.628-7.654,18.494-14.536,22.423
		c-7.075,4.039-10.625,5.312-16.576,5.694c-5.951-0.383-9.5-1.655-16.576-5.694c-6.882-3.929-12.43-16.795-14.537-22.423
		s-1.25-21.635-1.25-21.635s7.041-11.75,10.166-16.917c3.125-5.166,12-12.083,14.834-12.083c2.217,0,5.871-0.381,7.363-0.548
		c1.492,0.167,5.146,0.548,7.364,0.548c2.833,0,11.708,6.917,14.833,12.083c3.125,5.167,10.167,16.917,10.167,16.917
		S126.174,96.334,124.067,101.962z"/>
	<path fill="#74A8C4" d="M118.171,82.34c-1.13-4.334-5.727-4.25-8.665-4.334s-10.896,3.029-14.615,3.37
		c-1.358,0.124-5.427-0.579-5.427-0.579l0,0c-3.473-0.979-10.428-2.853-12.602-2.791c-2.938,0.084-7.534,0-8.664,4.334
		c-1.13,4.332-0.678,13.833,4.369,16.666c4.123,2.313,14.123,4.238,17.65,4.866h0.001c0.005,0.001,0.01,0.002,0.015,0.002
		c0.781,0.14,1.245,0.215,1.245,0.215v-0.063c1.616,0.127,3.412,0.063,3.412,0.063s13.862-2.25,18.909-5.083
		C118.849,96.173,119.301,86.672,118.171,82.34z"/>
	<path fill="#DBF0FC" d="M124.945,91.822c-0.437-1.431-1.936-0.896-2.929-0.896c-1.174,0-2.125,2.134-2.125,4.765
		c0,0.529,0.047,1.029,0.118,1.505c-0.04-0.009-0.078-0.032-0.118-0.032c-0.829,0-1.5,1.81-1.5,4.042
		c0,1.512,0.311,2.813,0.768,3.507c-0.029,0.05-0.062,0.104-0.093,0.156c-0.351-0.854-0.893-1.414-1.509-1.414
		c-1.059,0-1.916,1.623-1.916,3.626c0,0.293,0.023,0.573,0.058,0.847c-0.021-0.002-0.038-0.014-0.058-0.014
		c-0.898,0-2.625,2.66-2.625,4.708c0,0.132,0.025,0.242,0.039,0.362c-0.25-0.224-0.529-0.362-0.83-0.362
		c-1.013,0-1.834,1.437-1.834,3.209c0,0.307,0.033,0.597,0.078,0.877c-0.281-0.288-0.613-0.461-0.971-0.461
		c-1.012,0-2.166,3.042-2.167,4.688c-0.022,0.014-0.045,0.028-0.068,0.042c-0.449-0.652-1.229-1.088-2.122-1.088
		c-1.395,0-2.525,1.055-2.525,2.354c0,0.263,0.057,0.512,0.143,0.747c-0.263,0.097-0.526,0.192-0.792,0.286
		c-0.583-0.646-1.502-1.071-2.546-1.071c-1.766,0-3.196,1.194-3.196,2.667c0,0.066,0.018,0.128,0.023,0.193
		c-0.257,0.072-0.505,0.142-0.739,0.205c-0.056-0.39-0.172-0.74-0.332-1.026c-0.353-0.697-0.995-1.179-2.169-1.178
		c-1.477,0-2.123,0.448-2.399,1.095c-0.187,0.301-0.324,0.68-0.385,1.109c-0.233-0.063-0.481-0.133-0.739-0.205
		c0.006-0.065,0.023-0.127,0.023-0.193c0-1.473-1.431-2.667-3.195-2.667c-1.045,0-1.964,0.425-2.547,1.071
		c-0.266-0.094-0.529-0.189-0.791-0.286c0.085-0.235,0.142-0.484,0.142-0.747c0-1.3-1.13-2.354-2.524-2.354
		c-0.894,0-1.674,0.436-2.123,1.088c-0.023-0.014-0.045-0.028-0.068-0.042c-0.002-1.646-1.155-4.688-2.168-4.688
		c-0.357,0-0.688,0.173-0.971,0.461c0.047-0.28,0.078-0.57,0.078-0.877c0-1.772-0.82-3.209-1.833-3.209
		c-0.3,0-0.579,0.139-0.829,0.362c0.014-0.12,0.039-0.23,0.039-0.362c0-2.048-1.729-4.708-2.625-4.708
		c-0.021,0-0.039,0.012-0.059,0.014c0.035-0.273,0.059-0.554,0.059-0.847c0-2.003-0.858-3.626-1.917-3.626
		c-0.616,0-1.158,0.56-1.509,1.414c-0.031-0.053-0.063-0.106-0.092-0.156c0.455-0.693,0.768-1.995,0.768-3.507
		c0-2.232-0.672-4.042-1.5-4.042c-0.041,0-0.079,0.023-0.119,0.032c0.071-0.476,0.119-0.976,0.119-1.505
		c0-2.631-0.952-4.765-2.125-4.765c-0.994,0-2.492-0.535-2.93,0.896l-0.195-0.45c0,0.042,0.003,0.158,0.01,0.337
		c0.011,0.251,0.03,0.637,0.059,1.104c0,0.238,0.02,0.501,0.05,0.772c0.188,2.706,0.63,7.232,1.548,9.87
		c1.334,3.834,7.084,17.459,15.084,21.521c9.269,4.706,14.247,5.179,15.387,4.783c0.197,0.066,0.389,0.112,0.561,0.112
		c0.045,0,0.091-0.02,0.136-0.025c1.694,0.182,6.574-0.608,14.967-4.87c8-4.063,13.75-17.688,15.083-21.521
		c0.918-2.638,1.36-7.164,1.548-9.87c0.029-0.271,0.05-0.534,0.051-0.772c0.027-0.467,0.047-0.853,0.057-1.104
		c0.008-0.179,0.012-0.295,0.012-0.337L124.945,91.822z"/>
</g>
</svg>
