<?xml version="1.0" encoding="utf-8"?>
<!-- Generator: Adobe Illustrator 16.0.0, SVG Export Plug-In . SVG Version: 6.00 Build 0)  -->
<!DOCTYPE svg PUBLIC "-//W3C//DTD SVG 1.1//EN" "http://www.w3.org/Graphics/SVG/1.1/DTD/svg11.dtd">
<svg version="1.1" id="Layer_1" xmlns="http://www.w3.org/2000/svg" xmlns:xlink="http://www.w3.org/1999/xlink" x="0px" y="0px"
	 width="187.75px" height="185.547px" viewBox="0 0 187.75 185.547" enable-background="new 0 0 187.75 185.547"
	 xml:space="preserve">
<g>
	<rect fill="#BDFFFF" width="187.75" height="185.547"/>
	<path fill="#12374C" d="M60.72,101.854l-8.242-8.253l-25.999,25.966c-1.661,1.047-2.768,2.894-2.768,5.003
		c0,3.269,2.649,5.918,5.917,5.918c1.787,0,3.385-0.796,4.47-2.048L60.72,101.854z"/>
	<path fill="#74A8C4" d="M131.48,55.668c-6.251-3.267-12.584-2.036-16.923-0.338c-3.121,1.222-8.395,0.857-12.145-0.421
		c-4.267-1.453-10.054-2.229-15.774,0.759c-5.421,2.833-9.891,12.868-5.627,25.772c5.002,15.142,3.986,19.732,3.986,25.531
		c0,5.8-1.355,17.52,4.456,24.404c5.167,6.121,10.004,9.665,12.505,6.766c0-5.295-2.482-31.065,7.101-34.078
		c9.583,3.013,7.101,28.783,7.101,34.078c2.502,2.899,7.339-0.645,12.506-6.766c5.811-6.885,4.455-18.604,4.455-24.404
		c0-5.799-1.017-10.39,3.986-25.531C141.371,68.536,136.901,58.501,131.48,55.668z"/>
	<circle fill="#12374C" cx="75.666" cy="78.062" r="31.294"/>
	<circle fill="#BDFFFF" cx="75.666" cy="78.062" r="24.439"/>
	<path fill="#F0F9FF" d="M119.822,62.511c-0.047-1.898,1.126-3.973,3.625-3.473s6.814,4.656,7.844,7.98
		c1.399,4.521,1.042,13.238-0.292,14.572s-3.609-7.379-5.239-10.436C123.721,67.327,119.862,64.112,119.822,62.511z"/>
</g>
</svg>
