<?xml version="1.0" encoding="utf-8"?>
<!-- Generator: Adobe Illustrator 16.0.0, SVG Export Plug-In . SVG Version: 6.00 Build 0)  -->
<!DOCTYPE svg PUBLIC "-//W3C//DTD SVG 1.1//EN" "http://www.w3.org/Graphics/SVG/1.1/DTD/svg11.dtd">
<svg version="1.1" id="Layer_1" xmlns="http://www.w3.org/2000/svg" xmlns:xlink="http://www.w3.org/1999/xlink" x="0px" y="0px"
	 width="187.75px" height="185.547px" viewBox="0 0 187.75 185.547" enable-background="new 0 0 187.75 185.547"
	 xml:space="preserve">
<g>
	<rect fill="#36C6C6" width="187.75" height="185.547"/>
	<path fill="#066489" d="M115.914,64.173c-10.728,0.686-20.604,6.429-22.039,7.295c-1.435-0.866-11.312-6.609-22.039-7.295
		c-11.606-0.74-40.498,17.533-40.498,17.533s10.833,20.136,26.162,31.547c16.507,12.289,58.577,10.551,72.75,0
		c15.329-11.411,26.162-31.547,26.162-31.547S127.521,63.433,115.914,64.173z"/>
	<path fill="#DBF0FC" d="M93.875,78.933v-0.004c-0.052,0-0.107,0.001-0.161,0.002c-0.053-0.001-0.108-0.002-0.16-0.002v0.004
		C75.903,79.128,35,82.05,35,82.05s21.245,18.277,38.196,23.268c9.591,2.823,31.439,2.824,41.036,0
		c16.951-4.988,38.197-23.268,38.197-23.268S111.526,79.128,93.875,78.933z"/>
</g>
</svg>
