<?xml version="1.0" encoding="utf-8"?>
<!-- Generator: Adobe Illustrator 16.0.0, SVG Export Plug-In . SVG Version: 6.00 Build 0)  -->
<!DOCTYPE svg PUBLIC "-//W3C//DTD SVG 1.1//EN" "http://www.w3.org/Graphics/SVG/1.1/DTD/svg11.dtd">
<svg version="1.1" id="Layer_1" xmlns="http://www.w3.org/2000/svg" xmlns:xlink="http://www.w3.org/1999/xlink" x="0px" y="0px"
	 width="187.75px" height="185.547px" viewBox="0 0 187.75 185.547" enable-background="new 0 0 187.75 185.547"
	 xml:space="preserve">
<g>
	<rect fill="#36C6C6" width="187.75" height="185.547"/>
	<path fill="#C7EEFF" d="M67.164,79.972h51.26c0.585-2.357,1.367-5.068,2.418-8.248c4.264-12.905-0.207-22.939-5.627-25.773
		c-6.252-3.266-12.584-2.035-16.923-0.338c-3.12,1.222-8.395,0.857-12.145-0.42c-4.267-1.453-10.054-2.229-15.774,0.758
		c-5.421,2.834-9.891,12.868-5.627,25.773C65.797,74.903,66.579,77.614,67.164,79.972z"/>
	<path fill="#F0F9FF" d="M103.557,52.794c-0.047-1.898,1.126-3.973,3.625-3.473c2.5,0.5,6.814,4.655,7.844,7.98
		c1.4,4.521,1.043,13.237-0.291,14.571s-3.609-7.378-5.238-10.436C107.455,57.61,103.596,54.395,103.557,52.794z"/>
	<path fill="#12374C" d="M122.875,86.34h-58c-3.313,0-6,2.687-6,6s2.687,6,6,6H85.5v4.482H74c-1.795,0-3.25,1.455-3.25,3.25
		s1.455,3.25,3.25,3.25h11.5v4.518H78c-1.864,0-3.375,1.511-3.375,3.375s1.511,3.375,3.375,3.375h7.5v3.58h-4.54
		c-1.842,0-3.335,1.493-3.335,3.335s1.493,3.335,3.335,3.335h4.54v4.75h-0.875c-1.657,0-3,1.343-3,3s1.343,3,3,3h18.5
		c1.657,0,3-1.343,3-3s-1.343-3-3-3H100.5v-4.75h4.54c1.842,0,3.335-1.493,3.335-3.335s-1.493-3.335-3.335-3.335h-4.54v-3.58h9.25
		c1.864,0,3.375-1.511,3.375-3.375s-1.511-3.375-3.375-3.375h-9.25v-4.518h13.25c1.795,0,3.25-1.455,3.25-3.25
		s-1.455-3.25-3.25-3.25H100.5V98.34h22.375c3.313,0,6-2.687,6-6S126.188,86.34,122.875,86.34z"/>
</g>
</svg>
