<?xml version="1.0" encoding="utf-8"?>
<!-- Generator: Adobe Illustrator 16.0.0, SVG Export Plug-In . SVG Version: 6.00 Build 0)  -->
<!DOCTYPE svg PUBLIC "-//W3C//DTD SVG 1.1//EN" "http://www.w3.org/Graphics/SVG/1.1/DTD/svg11.dtd">
<svg version="1.1" id="Layer_1" xmlns="http://www.w3.org/2000/svg" xmlns:xlink="http://www.w3.org/1999/xlink" x="0px" y="0px"
	 width="187.75px" height="185.547px" viewBox="0 0 187.75 185.547" enable-background="new 0 0 187.75 185.547"
	 xml:space="preserve">
<g>
	<rect x="0.284" y="0.567" fill="#12374C" width="187.75" height="185.547"/>
	<path fill="#BDFFFF" d="M90.301,51.183c0-7.813-6.333-14.146-14.145-14.146c-7.813,0-14.146,6.332-14.146,14.146
		c0,7.15,5.31,13.045,12.199,13.996v9.253h-5.551v12.922h2.892l-2.884,54.4c-0.083,0.451-0.132,0.914-0.132,1.389
		c0,4.211,3.414,7.625,7.625,7.625s7.625-3.414,7.625-7.625c0-0.474-0.049-0.935-0.132-1.385l-2.707-54.404h2.713V74.432h-4.284
		v-9.485C85.633,63.487,90.301,57.886,90.301,51.183z M64.696,51.183c0-6.33,5.131-11.46,11.46-11.46
		c6.329,0,11.459,5.13,11.459,11.46c0,6.329-5.131,11.46-11.459,11.46C69.827,62.643,64.696,57.512,64.696,51.183z"/>
	<path fill="#BDFFFF" d="M125.652,141.758l-2.706-54.404h2.713V74.432h-4.283v-7.039v-3.298v-3.858V49.393h-0.006l-12.123-13.295
		l-4.039,3.684l10.701,11.735v8.72v7.156v7.039h-5.25v12.922h2.892l-2.884,54.4c-0.084,0.451-0.133,0.914-0.133,1.389
		c0,4.211,3.414,7.625,7.625,7.625s7.625-3.414,7.625-7.625C125.784,142.669,125.735,142.208,125.652,141.758z"/>
</g>
</svg>
