<?xml version="1.0" standalone="no"?>
<!DOCTYPE svg PUBLIC "-//W3C//DTD SVG 20010904//EN"
 "http://www.w3.org/TR/2001/REC-SVG-20010904/DTD/svg10.dtd">
<svg version="1.0" xmlns="http://www.w3.org/2000/svg"
 width="1103.000000pt" height="1103.000000pt" viewBox="0 0 1103.000000 1103.000000"
 preserveAspectRatio="xMidYMid meet">
<metadata>
Created by potrace 1.11, written by Peter Selinger 2001-2013
</metadata>
<g transform="translate(0.000000,1103.000000) scale(0.100000,-0.100000)"
fill="#000000" stroke="none">
<path d="M2639 11026 c-2 -2 -35 -6 -74 -10 -377 -32 -765 -160 -1093 -358
-202 -122 -470 -353 -613 -528 -222 -273 -398 -671 -443 -1000 -3 -25 -9 -67
-13 -95 -10 -69 -10 -403 0 -495 42 -385 195 -785 426 -1110 142 -201 439
-514 711 -750 47 -40 87 -76 90 -79 7 -8 88 -76 375 -316 138 -115 259 -218
270 -230 71 -75 176 -195 250 -285 48 -58 97 -116 109 -130 60 -69 109 -144
150 -231 43 -91 98 -257 110 -330 3 -19 10 -59 16 -89 22 -117 30 -370 17
-565 -7 -109 -11 -143 -32 -285 -8 -52 -17 -113 -20 -135 -9 -62 -93 -441
-115 -520 -11 -38 -40 -142 -64 -230 -24 -88 -86 -304 -136 -480 -51 -176 -94
-328 -96 -337 -6 -26 -9 -41 -44 -178 -17 -69 -33 -136 -35 -150 -2 -14 -15
-83 -29 -155 -27 -142 -33 -182 -42 -253 -3 -26 -7 -58 -9 -72 -2 -14 -7 -52
-10 -85 -3 -33 -8 -71 -10 -85 -2 -14 -7 -56 -10 -95 -4 -38 -8 -81 -10 -95
-2 -14 -7 -59 -11 -100 -7 -85 -9 -97 -20 -200 -17 -153 -7 -283 32 -387 28
-77 147 -162 262 -189 115 -27 218 2 290 80 44 48 58 75 137 266 103 247 250
520 550 1025 157 264 275 467 351 600 182 324 349 717 424 1000 61 229 85 415
84 645 0 201 -9 292 -41 450 -98 484 -317 900 -723 1374 -198 231 -509 525
-935 886 -99 84 -195 165 -214 181 -19 16 -53 44 -75 62 -22 17 -58 48 -81 67
-23 19 -65 55 -95 80 -199 168 -392 348 -536 501 -147 157 -317 403 -385 556
-16 38 -34 77 -39 88 -22 51 -66 213 -78 290 -14 91 -7 358 12 450 88 421 313
766 646 987 174 115 449 222 650 251 171 26 178 26 350 27 148 0 181 -2 305
-20 78 -11 93 -14 185 -34 234 -53 473 -150 670 -271 52 -33 100 -63 105 -67
98 -82 202 -150 256 -168 183 -63 392 37 483 230 26 57 30 75 29 145 -2 140
-48 205 -255 358 -162 120 -290 198 -473 287 -307 151 -596 240 -925 285 -25
3 -58 8 -75 11 -37 5 -481 14 -486 10z"/>
<path d="M8218 10955 c-2 -2 -37 -6 -78 -9 -41 -3 -86 -8 -100 -10 -14 -3 -59
-10 -100 -16 -111 -16 -290 -57 -419 -97 -498 -150 -970 -384 -1525 -757 -170
-114 -565 -401 -586 -425 -3 -4 -50 -42 -105 -85 -128 -102 -160 -136 -198
-215 -91 -191 -4 -450 184 -547 44 -22 68 -28 124 -28 96 -1 149 26 315 159
334 269 696 522 990 695 244 144 447 242 546 265 10 2 69 18 129 34 325 86
655 134 764 110 20 -4 54 -10 76 -13 22 -3 55 -10 73 -15 17 -5 32 -8 32 -6 0
10 239 -79 313 -116 286 -143 504 -366 616 -628 33 -77 73 -221 87 -306 4 -27
9 -57 10 -65 25 -123 25 -572 -1 -670 -2 -8 -6 -37 -10 -65 -3 -27 -12 -81
-20 -120 -8 -38 -16 -81 -19 -95 -3 -14 -12 -52 -21 -85 -9 -33 -18 -64 -19
-70 -2 -5 -6 -23 -11 -40 -46 -181 -209 -564 -324 -765 -15 -25 -42 -81 -60
-125 -19 -44 -49 -113 -67 -153 -19 -41 -34 -75 -34 -77 0 -15 -274 -575 -353
-720 -24 -44 -65 -120 -92 -170 -26 -49 -72 -132 -102 -183 -29 -52 -53 -96
-53 -98 0 -2 -11 -23 -26 -45 -14 -22 -33 -55 -43 -72 -49 -87 -73 -129 -121
-212 -29 -49 -67 -115 -85 -145 -17 -30 -112 -194 -211 -365 -99 -170 -203
-349 -231 -397 l-50 -88 -11 68 c-7 37 -14 83 -17 102 -3 19 -7 46 -10 60 -8
41 -16 93 -20 123 -2 16 -6 40 -9 55 -3 15 -8 45 -11 67 -3 22 -15 94 -26 160
-11 66 -22 134 -25 150 -2 17 -9 55 -14 85 -5 30 -12 80 -16 110 -3 30 -8 58
-10 61 -2 4 -6 27 -9 50 -3 24 -10 69 -15 99 -5 30 -12 75 -15 100 -3 25 -10
70 -15 100 -5 30 -12 75 -15 100 -3 25 -7 56 -10 70 -2 14 -7 48 -10 75 -29
258 -52 281 -132 128 -166 -319 -364 -930 -462 -1423 -64 -319 -78 -463 -56
-570 3 -14 7 -56 10 -95 3 -38 7 -81 10 -95 2 -14 7 -56 10 -95 3 -38 8 -83
10 -100 2 -16 7 -57 10 -90 6 -63 11 -108 20 -190 13 -125 18 -169 29 -290 4
-44 10 -91 12 -105 2 -14 6 -54 9 -90 3 -36 7 -78 10 -95 2 -16 6 -59 10 -95
3 -36 8 -81 10 -100 12 -110 27 -259 40 -400 3 -36 8 -81 10 -100 2 -19 7 -66
10 -105 3 -38 8 -83 10 -100 2 -16 7 -66 10 -110 3 -44 8 -102 11 -130 6 -63
10 -118 19 -220 3 -44 8 -105 11 -135 5 -61 9 -113 19 -245 4 -49 8 -106 10
-125 2 -20 6 -90 9 -155 10 -199 17 -278 28 -320 5 -22 12 -48 13 -57 6 -28
43 -102 63 -125 31 -36 113 -82 180 -103 76 -24 185 -21 252 5 170 68 260 212
305 493 7 45 8 54 19 152 4 36 9 76 11 90 2 14 6 48 9 75 3 28 10 88 16 135 5
47 12 110 15 140 6 69 11 113 30 275 8 72 17 150 19 175 8 81 39 316 51 390 2
14 7 43 10 65 29 194 150 616 230 800 7 17 30 71 50 120 55 133 241 508 339
681 184 329 337 583 659 1099 277 442 477 769 557 910 196 343 214 376 353
655 305 610 484 1141 562 1665 4 22 8 51 10 65 4 24 8 62 25 220 8 81 5 470
-5 535 -3 22 -10 72 -16 110 -6 39 -13 84 -15 100 -3 17 -7 37 -9 45 -2 8 -7
29 -10 47 -26 157 -122 432 -220 628 -200 404 -468 712 -817 939 -173 113
-461 233 -648 271 -3 0 -23 5 -45 10 -60 13 -66 14 -115 20 -25 3 -61 8 -80
11 -36 6 -417 14 -422 9z"/>
</g>
</svg>
