<svg xmlns="http://www.w3.org/2000/svg" width="62488.626" height="20377.822" viewBox="0 0 16.533449 5.3916319"><path d="M7.2 1.91c0 .605-.325.912-.748.912-.443 0-.727-.36-.727-.884 0-.548.305-.907.75-.907.462 0 .725.38.725.88zm-1.198.02c0 .353.16.676.46.676.304 0 .46-.316.46-.686 0-.332-.145-.673-.456-.673-.32 0-.464.343-.464.684zM8.503 2.463c0 .114.004.248.01.334H8.28l-.014-.195H8.26c-.066.127-.203.22-.38.22-.284 0-.5-.252-.5-.64 0-.424.243-.665.523-.665.16 0 .277.073.33.17h.006V.973h.263zm-.264-.41c0-.206-.13-.326-.278-.326-.203 0-.314.2-.314.447 0 .246.11.434.31.434.17 0 .28-.15.28-.325zM9.92 2.16c0 .47-.306.662-.588.662-.325 0-.573-.24-.573-.643 0-.424.26-.663.59-.663.344 0 .57.26.57.644zm-.58-.445c-.224 0-.31.24-.31.457 0 .246.116.452.31.452.19 0 .308-.206.308-.457 0-.206-.086-.452-.307-.452zM11.214 2.797h-.263v-.734c0-.177-.058-.327-.238-.327-.13 0-.268.107-.268.307v.754h-.264v-.9c0-.14-.004-.246-.01-.352h.23l.014.186h.007c.06-.106.192-.213.38-.213.196 0 .415.128.415.514v.767zM11.6 1.317l.26-.08v.308h.298v.197h-.298v.635c0 .154.048.23.16.23.05 0 .083-.008.115-.017l.01.203c-.046.018-.117.03-.206.03-.105 0-.194-.035-.248-.096-.064-.068-.093-.173-.093-.337v-.648h-.18v-.197h.18v-.228zM13.465 2.16c0 .47-.305.662-.587.662-.325 0-.573-.24-.573-.643 0-.424.26-.663.59-.663.345 0 .57.26.57.644zm-.578-.445c-.225 0-.31.24-.31.457 0 .246.115.452.308.452.19 0 .31-.206.31-.457 0-.206-.087-.452-.308-.452z" fill="#496bb3"/><path d="M15.063 1.33c-.057-.033-.166-.08-.31-.08-.206 0-.293.122-.293.233 0 .148.098.22.32.316.278.122.412.274.412.513 0 .29-.216.51-.607.51-.163 0-.336-.05-.42-.105l.06-.22c.092.056.233.1.376.1.208 0 .324-.106.324-.262 0-.148-.09-.24-.295-.325-.26-.104-.436-.26-.436-.497 0-.275.22-.482.566-.482.166 0 .29.042.366.08z" fill="#0299d4"/><path d="M15.474 1.08c.105-.02.243-.035.423-.035.214 0 .375.045.48.138.097.084.156.216.156.375 0 .423-.336.57-.65.57-.054 0-.104-.004-.147-.013v.682h-.262V1.08zm.262.824c.038.01.086.013.147.013.24 0 .387-.125.387-.347 0-.212-.146-.32-.357-.32-.082 0-.143.01-.177.017z" fill="#496bb3"/><g fill="#848484"><path d="M6.176 4.6H5.81V3.586h.36v.115h-.225v.32h.208v.116h-.208v.35h.23zM6.652 4.022c-.04-.016-.074-.025-.103-.025-.028 0-.05.007-.067.02-.017.015-.025.034-.025.058 0 .02.007.038.02.056.015.02.044.048.088.086.043.038.074.072.093.1.017.03.026.064.026.1 0 .055-.02.1-.056.137-.037.036-.084.054-.14.054-.038 0-.08-.01-.13-.03V4.47c.047.02.088.03.122.03.025 0 .044-.007.058-.02.014-.015.02-.033.02-.056 0-.02-.008-.043-.027-.067-.02-.024-.05-.055-.097-.092-.066-.053-.1-.115-.1-.184 0-.054.02-.1.055-.136.037-.036.082-.054.136-.054.034 0 .076.01.126.026zM7.083 4.007H7V4.6h-.13v-.593h-.084v-.103h.084v-.19H7v.19h.083zM7.634 4.275h-.292c0 .075.005.132.015.17.01.038.035.058.074.058.03 0 .05-.01.06-.034.012-.023.017-.058.018-.105h.118c-.004.162-.073.243-.207.243-.145 0-.217-.113-.217-.34 0-.25.075-.374.224-.374.057 0 .106.022.146.064.04.043.06.132.06.267v.05zm-.13-.1c0-.07-.007-.12-.018-.15-.01-.03-.03-.044-.06-.044-.035 0-.057.016-.068.048-.01.03-.016.08-.016.146h.16zM8.05 4.007h-.083V4.6h-.13v-.593h-.084v-.103h.084v-.19h.13v.19h.083zM8.173 3.692c0-.02.008-.036.022-.05.014-.014.03-.02.05-.02.02 0 .036.006.05.02.015.014.02.03.02.05 0 .02-.006.037-.02.05-.014.015-.03.022-.05.022-.02 0-.037-.007-.05-.02-.015-.015-.022-.032-.022-.052zm.007.212h.13V4.6h-.13zM8.788 4.577c-.043.02-.082.03-.117.03-.07 0-.122-.028-.155-.086-.033-.057-.05-.15-.05-.274 0-.133.022-.225.064-.277.04-.052.09-.078.145-.078.027 0 .065.01.112.025v.11c-.03-.013-.055-.02-.073-.02-.038 0-.065.02-.082.06-.017.04-.026.105-.026.192 0 .156.035.235.103.235.02 0 .045-.008.078-.025zM9.345 4.6h-.13v-.085H9.21c-.033.062-.076.093-.13.093-.044 0-.083-.02-.118-.063-.034-.042-.05-.136-.05-.283 0-.13.012-.224.038-.282.026-.057.07-.086.133-.086.03 0 .053.007.07.02.02.015.038.036.057.067h.004v-.076h.13V4.6zm-.213-.105c.033 0 .055-.02.066-.06.01-.04.016-.107.016-.203 0-.083-.005-.142-.015-.176-.01-.034-.032-.052-.064-.052s-.054.016-.066.048c-.012.032-.02.09-.02.173 0 .098.006.167.016.208.01.04.032.062.066.062zM10.28 3.904l-.324 1.002h-.114l.114-.37-.19-.632h.13l.116.478h.003l.14-.478zM11.034 4.022c-.04-.016-.074-.025-.103-.025-.026 0-.048.007-.065.02-.017.015-.025.034-.025.058 0 .02.007.038.02.056.015.02.044.048.087.086.044.038.075.072.093.1.02.03.028.064.028.1 0 .055-.02.1-.056.137-.037.036-.084.054-.14.054-.038 0-.082-.01-.13-.03V4.47c.047.02.088.03.12.03.026 0 .046-.007.06-.02.014-.015.02-.033.02-.056 0-.02-.008-.043-.027-.067-.02-.024-.05-.055-.097-.092-.067-.053-.1-.115-.1-.184 0-.054.018-.1.055-.136.036-.036.08-.054.135-.054.034 0 .075.01.126.026zM11.64 4.6h-.13v-.085h-.004c-.034.062-.077.093-.13.093-.044 0-.084-.02-.118-.063-.035-.042-.052-.136-.052-.283 0-.13.013-.224.04-.282.025-.057.07-.086.132-.086.03 0 .054.007.072.02.018.015.037.036.056.067h.004v-.076h.13V4.6zm-.213-.105c.033 0 .055-.02.066-.06.01-.04.017-.107.017-.203 0-.083-.005-.142-.015-.176-.01-.034-.03-.052-.063-.052-.032 0-.054.016-.067.048-.012.032-.018.09-.018.173 0 .098.005.167.014.208.01.04.033.062.067.062zM11.947 4.6h-.13V3.55h.13zM12.537 4.38c0 .08-.016.14-.05.175-.03.035-.084.053-.158.053-.075 0-.13-.017-.163-.053-.033-.035-.05-.09-.05-.17v-.483h.13v.485c0 .077.027.116.082.116.028 0 .048-.01.06-.03.012-.02.018-.052.018-.098v-.473h.13zM13.008 3.55h.13V4.6h-.128v-.094h-.003c-.032.068-.076.102-.134.102-.034 0-.065-.01-.093-.034-.03-.023-.048-.054-.06-.095-.01-.042-.016-.11-.016-.205 0-.11.005-.187.014-.234.01-.045.028-.082.055-.108.027-.027.06-.04.103-.04.055 0 .098.03.13.093h.002zm.002.69c0-.085-.006-.146-.017-.182-.01-.036-.032-.054-.065-.054s-.056.02-.068.057c-.012.038-.018.1-.018.188 0 .09.006.154.017.192.01.04.032.058.065.058.03 0 .054-.02.066-.06.013-.04.02-.106.02-.198zM13.9 3.55h.128V4.6H13.9v-.094h-.003c-.03.068-.076.102-.133.102-.034 0-.065-.01-.094-.034-.028-.023-.048-.054-.06-.095-.01-.042-.016-.11-.016-.205 0-.11.005-.187.015-.234.008-.045.026-.082.053-.108.027-.027.062-.04.104-.04.054 0 .097.03.128.093h.004zm0 .69c0-.085-.005-.146-.016-.182-.01-.036-.033-.054-.066-.054-.032 0-.055.02-.067.057-.01.038-.017.1-.017.188 0 .09.005.154.017.192.01.04.033.058.065.058s.054-.02.067-.06c.012-.04.018-.106.018-.198zM14.622 4.275h-.292c0 .075.005.132.016.17.01.038.034.058.073.058.03 0 .05-.01.06-.034.01-.023.016-.058.016-.105h.118c-.003.162-.072.243-.206.243-.144 0-.216-.113-.216-.34 0-.25.074-.374.224-.374.056 0 .105.022.146.064.04.043.06.132.06.267v.05zm-.13-.1c0-.07-.006-.12-.017-.15-.012-.03-.032-.044-.06-.044-.035 0-.058.016-.07.048-.01.03-.015.08-.015.146h.16zM14.92 3.902v.067h.004c.034-.052.08-.078.135-.078.1 0 .15.055.15.165V4.6h-.128v-.506c0-.068-.027-.102-.08-.102-.026 0-.046.01-.06.027-.015.017-.022.042-.022.074V4.6h-.13V3.9zM15.633 4.007h-.083V4.6h-.13v-.593h-.084v-.103h.083v-.19h.13v.19h.083zM16.18 4.6h-.13v-.085h-.004c-.033.062-.076.093-.13.093-.044 0-.083-.02-.118-.063-.034-.042-.05-.136-.05-.283 0-.13.012-.224.038-.282.026-.057.07-.086.133-.086.028 0 .052.007.07.02.02.015.037.036.056.067h.004v-.076h.13V4.6zm-.212-.105c.033 0 .055-.02.066-.06.01-.04.016-.107.016-.203 0-.083-.005-.142-.015-.176-.01-.034-.03-.052-.063-.052-.032 0-.054.016-.066.048-.012.032-.02.09-.02.173 0 .098.006.167.016.208.01.04.032.062.066.062zM16.487 4.6h-.13V3.55h.13z"/></g><g><path d="M2.12.34C1.61-.082.85-.135.346.317-.103.72-.1 1.39.267 1.83c.184.22.414.397.634.582.05.04.233.266.24.278.15.25.11.588.05.86-.074.348-.21.68-.253 1.034-.015.127-.026.256-.042.384-.003.03.013.14.032.162.084.093.243.116.3-.03.233-.616.823-1.15.7-1.86-.038-.23-.142-.426-.278-.603-.008-.012-.016-.022-.026-.03-.175-.22-.4-.406-.61-.583-.334-.28-.75-.6-.618-1.084.18-.658 1.01-.706 1.472-.324.184.153.436-.123.25-.276z" fill="#0299d4"/><path d="M3.997.038c-.59-.043-1.203.36-1.636.716-.184.15.014.467.2.315.22-.18.467-.36.736-.488.05-.025.375-.108.486-.095.264.03.518.195.586.463.085.337-.014.738-.203 1.06-.196.482-.477.918-.733 1.368-.046-.288-.096-.575-.134-.863 0-.005-.002-.065-.034-.04-.048.085-.085.18-.117.27-.08.22-.133.44-.166.67.055.526.116 1.05.154 1.576l.007.1c.002.018-.002.194.053.244.07.063.184.086.273.006.077-.07.085-.2.097-.295.025-.2.04-.402.07-.603.055-.368.228-.686.415-1.003.384-.653.898-1.31.954-2.092C5.046.716 4.65.086 3.997.038z" fill="#496bb3"/></g></svg>