<svg xmlns="http://www.w3.org/2000/svg" width="220194.448" height="71806.394" viewBox="0 0 58.259781 18.998775"><path d="M25.372 6.733c0 2.13-1.146 3.212-2.635 3.212-1.562 0-2.564-1.266-2.564-3.116 0-1.932 1.074-3.197 2.643-3.197 1.627 0 2.556 1.337 2.556 3.1zm-4.22.072c0 1.24.56 2.38 1.617 2.38 1.072 0 1.625-1.115 1.625-2.42 0-1.17-.513-2.37-1.61-2.37-1.13 0-1.634 1.208-1.634 2.41zM29.962 8.68c0 .4.016.872.032 1.176h-.817l-.05-.69h-.023c-.232.45-.713.78-1.337.78-1.002 0-1.763-.89-1.763-2.252 0-1.498.857-2.347 1.843-2.347.568 0 .977.256 1.17.593h.015V3.432h.93zm-.93-1.45c0-.722-.456-1.146-.977-1.146-.713 0-1.105.705-1.105 1.578 0 .865.384 1.53 1.09 1.53.6 0 .992-.53.992-1.146zM34.95 7.614c0 1.65-1.072 2.33-2.065 2.33-1.146 0-2.02-.84-2.02-2.266 0-1.49.914-2.33 2.084-2.33 1.208 0 2 .912 2 2.266zm-2.033-1.57c-.793 0-1.097.85-1.097 1.61 0 .865.408 1.594 1.09 1.594.672 0 1.088-.73 1.088-1.61 0-.73-.304-1.594-1.08-1.594zM39.517 9.856h-.93V7.27c0-.625-.207-1.154-.84-1.154-.457 0-.945.377-.945 1.08v2.66h-.93v-3.17c0-.49-.016-.867-.032-1.243h.81l.048.657h.024c.208-.377.672-.753 1.337-.753.688 0 1.457.448 1.457 1.81v2.7zM40.87 4.642l.922-.288v1.09h1.05v.696h-1.05v2.235c0 .544.168.81.56.81.184 0 .297-.025.41-.057l.03.712c-.16.064-.408.105-.72.105-.37 0-.68-.12-.873-.337-.226-.24-.33-.61-.33-1.185V6.14h-.624v-.697h.624v-.8zM47.447 7.614c0 1.65-1.074 2.33-2.067 2.33-1.146 0-2.02-.84-2.02-2.266 0-1.49.914-2.33 2.084-2.33 1.21 0 2.003.912 2.003 2.266zm-2.035-1.57c-.793 0-1.097.85-1.097 1.61 0 .865.408 1.594 1.09 1.594.672 0 1.088-.73 1.088-1.61 0-.73-.304-1.594-1.08-1.594z" fill="#496bb3"/><path d="M53.077 4.682c-.2-.112-.584-.272-1.09-.272-.728 0-1.032.424-1.032.817 0 .52.344.777 1.12 1.113.987.433 1.46.97 1.46 1.81 0 1.026-.762 1.795-2.14 1.795-.576 0-1.185-.17-1.482-.37l.21-.776c.327.2.824.36 1.328.36.73 0 1.14-.377 1.14-.93 0-.52-.314-.84-1.043-1.145-.913-.37-1.53-.92-1.53-1.755 0-.97.778-1.698 1.995-1.698.585 0 1.025.145 1.29.28z" fill="#0299d4"/><path d="M54.527 3.8c.37-.063.857-.12 1.49-.12.753 0 1.32.16 1.69.49.345.296.553.76.553 1.32 0 1.49-1.186 2.003-2.29 2.003-.193 0-.37-.007-.522-.04v2.403h-.92V3.8zm.92 2.908c.138.04.306.05.522.05.848 0 1.36-.442 1.36-1.227 0-.744-.512-1.12-1.257-1.12-.288 0-.505.032-.625.056z" fill="#496bb3"/><g fill="#848484"><path d="M21.763 16.205h-1.29v-3.567h1.267v.406h-.792v1.13h.734v.407h-.734v1.23h.815zM23.44 14.172c-.14-.058-.26-.086-.36-.086-.098 0-.176.024-.235.072-.06.05-.088.116-.088.2 0 .067.025.134.074.2.05.065.152.164.306.297.154.134.263.253.327.36.065.104.097.22.097.348 0 .192-.065.352-.196.48-.13.126-.297.19-.498.19-.13 0-.284-.035-.46-.104v-.38c.17.07.315.105.433.105.088 0 .157-.024.206-.072.05-.048.074-.112.074-.192 0-.074-.033-.153-.1-.238-.065-.084-.18-.19-.342-.322-.233-.19-.35-.405-.35-.65 0-.193.064-.353.192-.48.128-.13.287-.193.477-.193.118 0 .266.03.443.093zM24.96 14.12h-.294v2.085h-.46V14.12h-.293v-.362h.294v-.666h.46v.666h.293zM26.9 15.063h-1.03c0 .265.018.465.054.6.037.136.123.203.26.203.104 0 .175-.04.212-.117.038-.08.057-.203.06-.37h.416c-.013.572-.256.86-.728.86-.508 0-.76-.402-.76-1.205 0-.875.262-1.313.788-1.313.2 0 .37.076.514.227.142.15.214.463.214.937v.176zm-.462-.356c0-.243-.02-.416-.06-.522-.038-.106-.11-.158-.21-.158-.123 0-.203.055-.24.166-.04.11-.058.283-.058.514h.568zM28.367 14.12h-.294v2.085h-.46V14.12h-.293v-.362h.294v-.666h.46v.666h.293zM28.8 13.01c0-.067.026-.126.075-.176.05-.05.11-.075.178-.075.07 0 .13.024.178.074.05.05.075.11.075.177 0 .07-.025.13-.074.178-.048.05-.108.074-.177.074-.07 0-.13-.024-.18-.074-.048-.05-.072-.11-.072-.177zm.024.748h.453v2.447h-.453zM30.968 16.13c-.15.072-.29.108-.414.108-.25 0-.433-.102-.55-.308-.115-.205-.172-.528-.172-.968 0-.47.073-.793.22-.975.148-.18.32-.27.516-.27.097 0 .228.028.394.086v.39c-.108-.05-.193-.074-.257-.074-.133 0-.23.07-.29.214-.058.142-.088.367-.088.673 0 .554.12.832.36.832.07 0 .163-.03.28-.088zM32.928 16.205h-.46v-.297h-.013c-.117.22-.27.33-.455.33-.16 0-.298-.074-.42-.222-.12-.15-.18-.48-.18-.998 0-.46.045-.79.136-.993.092-.202.248-.303.47-.303.103 0 .188.024.252.073.064.048.13.125.197.232h.014v-.27h.458v2.448zm-.75-.367c.116 0 .194-.07.233-.21.04-.14.06-.378.06-.714 0-.295-.018-.502-.054-.623-.035-.12-.11-.18-.22-.18-.114 0-.192.057-.236.17-.043.11-.065.313-.065.606 0 .346.017.59.05.735.036.146.113.218.233.218zM36.223 13.758l-1.142 3.53h-.4l.4-1.3-.663-2.23h.46l.4 1.684h.013l.498-1.684zM38.88 14.172c-.14-.058-.26-.086-.36-.086-.098 0-.176.024-.235.072-.06.05-.088.116-.088.2 0 .067.025.134.074.2.05.065.152.164.306.297.154.134.263.253.328.36.064.104.096.22.096.348 0 .192-.065.352-.196.48-.13.126-.296.19-.498.19-.13 0-.284-.035-.46-.104v-.38c.172.07.315.105.434.105.088 0 .157-.024.206-.072.05-.048.075-.112.075-.192 0-.074-.032-.153-.098-.238-.067-.084-.18-.19-.344-.322-.233-.19-.35-.405-.35-.65 0-.193.064-.353.192-.48.128-.13.287-.193.478-.193.117 0 .265.03.442.093zM41.016 16.205h-.46v-.297h-.013c-.117.22-.27.33-.455.33-.16 0-.298-.074-.42-.222-.12-.15-.18-.48-.18-.998 0-.46.045-.79.136-.993.092-.202.248-.303.47-.303.103 0 .188.024.252.073.064.048.13.125.197.232h.014v-.27h.46v2.448zm-.75-.367c.116 0 .194-.07.233-.21.037-.14.057-.378.057-.714 0-.295-.017-.502-.053-.623-.035-.12-.11-.18-.22-.18-.114 0-.192.057-.236.17-.043.11-.065.313-.065.606 0 .346.017.59.05.735.036.146.113.218.233.218zM42.097 16.205h-.46v-3.693h.46zM44.177 15.432c0 .286-.057.49-.17.618-.115.126-.303.188-.564.188-.26 0-.45-.06-.568-.186-.118-.124-.176-.323-.176-.597V13.75h.452v1.71c0 .27.097.406.29.406.104 0 .176-.034.218-.104.042-.07.063-.183.063-.344v-1.67h.454zM45.837 12.512h.456v3.693h-.45v-.328h-.01c-.112.24-.268.36-.472.36-.118 0-.228-.038-.328-.12-.1-.08-.17-.19-.208-.335-.04-.144-.06-.384-.06-.72 0-.382.018-.656.05-.82.035-.166.1-.295.194-.387.095-.093.217-.14.364-.14.193 0 .344.11.454.328h.01zm.006 2.43c0-.302-.02-.516-.058-.642-.038-.126-.115-.19-.23-.19-.116 0-.196.067-.24.2-.042.132-.063.35-.063.657 0 .318.02.544.06.68.04.135.117.202.23.202s.19-.07.235-.212c.044-.14.066-.373.066-.696zM48.975 12.512h.457v3.693h-.45v-.328h-.012c-.11.24-.267.36-.47.36-.12 0-.23-.038-.33-.12-.1-.08-.17-.19-.208-.335-.04-.144-.06-.384-.06-.72 0-.382.018-.656.05-.82.035-.166.1-.295.195-.387.095-.093.216-.14.364-.14.193 0 .344.11.454.328h.01zm.006 2.43c0-.302-.018-.516-.057-.642-.038-.126-.115-.19-.23-.19-.116 0-.196.067-.238.2-.043.132-.065.35-.065.657 0 .318.02.544.06.68.04.135.118.202.232.202.112 0 .19-.07.233-.212.044-.14.066-.373.066-.696zM51.526 15.063h-1.03c0 .265.018.465.054.6.037.136.123.203.26.203.104 0 .175-.04.212-.117.037-.08.057-.203.06-.37h.416c-.013.572-.256.86-.728.86-.508 0-.762-.402-.762-1.205 0-.875.263-1.313.79-1.313.2 0 .37.076.514.227.142.15.214.463.214.937v.176zm-.462-.356c0-.243-.02-.416-.06-.522-.038-.106-.11-.158-.212-.158-.12 0-.2.055-.24.166-.037.11-.057.283-.057.514h.57zM52.58 13.75v.235h.01c.117-.18.276-.27.476-.27.354 0 .532.194.532.58v1.91h-.454v-1.778c0-.24-.095-.36-.285-.36-.09 0-.16.03-.21.096-.05.064-.077.152-.077.264v1.778h-.46V13.75zM55.087 14.12h-.294v2.085h-.46V14.12h-.293v-.362h.294v-.666h.46v.666h.293zM57.016 16.205h-.46v-.297h-.013c-.117.22-.27.33-.455.33-.158 0-.298-.074-.42-.222-.12-.15-.18-.48-.18-.998 0-.46.045-.79.137-.993.09-.202.247-.303.468-.303.105 0 .19.024.253.073.064.048.13.125.197.232h.014v-.27h.46v2.448zm-.75-.367c.116 0 .194-.07.233-.21.038-.14.057-.378.057-.714 0-.295-.017-.502-.052-.623-.036-.12-.11-.18-.222-.18-.113 0-.19.057-.235.17-.043.11-.065.313-.065.606 0 .346.017.59.05.735.035.146.113.218.233.218zM58.097 16.205h-.46v-3.693h.46z"/></g><g><path d="M7.465 1.196C5.675-.29 3-.474 1.222 1.116-.366 2.537-.35 4.894.945 6.45c.646.776 1.455 1.4 2.23 2.053.17.144.818.936.843.978.53.88.388 2.074.18 3.033-.267 1.225-.748 2.397-.896 3.645-.054.447-.092.9-.147 1.35-.013.102.044.494.113.57.293.33.854.412 1.05-.11.825-2.163 2.906-4.048 2.477-6.543-.14-.812-.505-1.507-.985-2.13-.025-.04-.053-.078-.086-.11-.617-.767-1.406-1.425-2.153-2.05C2.398 6.15.93 5.02 1.396 3.31 2.03.992 4.958.822 6.58 2.17c.652.54 1.54-.433.885-.974z" fill="#0299d4"/><path d="M14.084.135c-2.077-.154-4.238 1.27-5.766 2.52-.65.53.048 1.647.704 1.11.77-.627 1.646-1.266 2.592-1.715.182-.087 1.322-.38 1.714-.334.93.11 1.823.686 2.062 1.633.3 1.185-.047 2.6-.714 3.73-.69 1.703-1.682 3.237-2.58 4.823-.164-1.014-.342-2.025-.475-3.04 0-.017-.007-.23-.12-.142-.17.3-.297.632-.412.95-.282.774-.47 1.557-.583 2.368.19 1.85.404 3.695.538 5.548.01.117.017.235.024.353.006.058-.01.68.185.857.244.222.647.303.96.02.27-.242.3-.703.342-1.04.09-.707.142-1.417.248-2.124.195-1.297.802-2.417 1.46-3.535 1.356-2.298 3.167-4.614 3.363-7.37.157-2.225-1.24-4.444-3.54-4.613z" fill="#496bb3"/></g></svg>