<svg xmlns="http://www.w3.org/2000/svg" width="471.843" height="471.864" viewBox="0 0 471.84325 471.8643"><path d="M220.877 0c-3.8 2.163-8.128 1.653-12.2 2.21-30.328 4.144-58.653 13.917-85.16 29.23-24.95 14.412-46.364 32.873-64.388 55.263-20.98 26.06-35.495 55.358-43.644 87.844C7.094 208 6.523 241.627 13.26 275.342c3.67 18.37 9.553 36.075 17.877 52.94 2.83 5.73 5.645 11.45 9.002 16.884 1.34 2.167 1.552 4.188.682 6.723C30.2 382.825 19.692 413.8 9.18 444.772c-2.336 6.884-4.53 13.818-6.912 20.686-.497 1.43-.494 3.253-2.21 4.067.196.956-.82 2.723 1.504 2.262 5.106-2.97 10.93-3.936 16.44-5.714 28.14-9.085 56.35-17.936 84.535-26.877 7.524-2.39 15.064-4.736 22.543-7.26 2.19-.74 3.98-.67 6.05.433 35.738 19.044 73.95 27.916 114.356 27.13 31.075-.603 60.863-7.316 89.32-19.93 26.062-11.554 49.232-27.382 69.366-47.468 23.08-23.024 40.65-49.75 52.373-80.283 7.514-19.567 12.14-39.76 14.254-60.576.113-1.122-.456-2.568 1.044-3.293v-36.176c-2.084-3.832-1.567-8.162-2.108-12.24-4.014-30.212-13.77-58.378-29.082-84.715-18.15-31.22-42.395-56.67-72.45-76.506-29.63-19.557-62.118-31.67-97.41-36.205-4.33-.555-8.86-.214-12.987-2.11h-36.93zM163.6 124.9c1.588.006 3.198.14 4.816.37 2.336 0 4.592-.106 6.834.025 3.434.2 6.195 1.495 8.05 4.684 3.987 6.862 6.465 14.376 9.6 21.604 3.487 8.042 6.483 16.31 10.243 24.22 2.772 5.832 1.2 10.66-1.84 15.548-3.465 5.574-8.11 10.196-12.326 15.158-3.354 3.944-3.93 7.265-1.295 11.568 14.937 24.383 34.1 44.488 59.562 58.037 6.07 3.23 12.41 5.997 18.76 8.65 5.27 2.204 7.853 1.223 11.566-3.017 5.863-6.698 11.447-13.612 16.823-20.707 3.684-4.86 6.812-5.743 12.474-3.308 15.65 6.73 30.93 14.254 46.197 21.807 3.512 1.738 4.914 4.376 4.797 8.138-.274 8.866-1.563 17.55-5.917 25.386-3.35 6.03-8.868 10.07-14.453 13.944-9.755 6.77-20.785 9.98-32.392 11.01-8.346.74-16.436-1.66-24.342-4.098-14.137-4.356-28.113-9.233-41.6-15.334-12.965-5.864-24.78-13.666-35.828-22.615-17.035-13.796-31.837-29.742-44.748-47.4-9.08-12.422-18.373-24.755-24.29-39.172-9.292-22.636-10.197-44.805 3.536-66.18 3.406-5.3 7.587-10.012 12.467-13.966 3.977-3.224 8.542-4.37 13.307-4.352z" clip-rule="evenodd" fill="#020202" fill-rule="evenodd"/></svg>